# xmcd
#
# Track frame offsets: 
#        150
#        26311
#        62415
#        82451
#        109886
#        134085
#        157354
#        183391
#        224397
#
# Disc length: 4434 seconds
#
# Revision: 1
# Processed by: cddbd v1.5.2PL0 Copyright (c) Steve Scherf et al.
# Submitted via: ExactAudioCopy v0.99pb4
#
DISCID=88115009
DTITLE=Jay McShann - Hootie Blues
DYEAR=2006
DGENRE=Blues
TTITLE0=Confessin' The Blues
TTITLE1=Yes Sir, That's My Baby?
TTITLE2=When The Lights Go Out
TTITLE3=Hootie Blues
TTITLE4=My Chile
TTITLE5=I'll Catch The Sun
TTITLE6=All Of Me
TTITLE7=Deed I Do
TTITLE8=Jay Mcshann Interview [*]
EXTD=
EXTT0=
EXTT1=
EXTT2=
EXTT3=
EXTT4=
EXTT5=
EXTT6=
EXTT7=
EXTT8=
PLAYORDER=
